<?xml version="1.0" encoding="utf-8"?>
<!-- Generator: Adobe Illustrator 26.0.2, SVG Export Plug-In . SVG Version: 6.00 Build 0)  -->
<svg version="1.1" xmlns="http://www.w3.org/2000/svg" xmlns:xlink="http://www.w3.org/1999/xlink" x="0px" y="0px"
	 viewBox="0 0 578 188" style="enable-background:new 0 0 578 188;" xml:space="preserve">
<style type="text/css">
	.st0{fill:#D8CEEF;}
	.st1{fill:#360B7A;}
</style>
<g id="Layer_1">
</g>
<g id="Layer_4">
	<polygon class="st0" points="182.8,99.5 130.5,168.4 44.4,160.9 10.5,84.5 62.8,15.6 148.9,23.1 	"/>
</g>
<g id="Layer_2">
	<path class="st1" d="M70.8,65.2H55.9c-0.2,0-0.3-0.1-0.3-0.3v-5.2c0-3.6,2.9-6.5,6.5-6.5h8.7c0.2,0,0.3,0.1,0.3,0.3v11.4
		C71.1,65.1,70.9,65.2,70.8,65.2z"/>
	<path class="st1" d="M103.6,143.4h-7.1V71.2h13.9v65.4C110.4,140.4,107.3,143.4,103.6,143.4z"/>
	<path class="st1" d="M89.2,143.4h-4.8c-3.8,0-6.8-3-6.8-6.8v-32.3h11.6V143.4z"/>
	<ellipse class="st1" cx="82.9" cy="93.3" rx="6.2" ry="6.4"/>
	<path class="st1" d="M127,56.8v8.4H79.2V52.9h44.4C125.5,52.9,127,54.7,127,56.8z"/>
	<rect x="79.2" y="63.6" class="st1" width="12.7" height="14.3"/>
</g>
<g id="Layer_3">
	<g>
		<path class="st1" d="M245.4,61.6c0,0.8-0.4,1.2-1.3,1.2c-1.5,0-7.2-0.3-17.4-0.9c-0.2,9.7-0.3,16.5-0.3,20.4
			c0,4.5,0.2,11.4,0.5,20.5c0.4,9.1,0.5,15.9,0.5,20.5c0,0.7-0.2,1.2-0.5,1.4c-0.1,0.1-0.7,0.2-1.6,0.3c-2.3,0.3-5.7,0.5-10.1,0.5
			c-5,0-8.4-0.2-10.4-0.5c-1.1-0.2-1.6-0.8-1.6-1.8c0-4.5,0.2-11.3,0.6-20.4c0.4-9.1,0.6-15.9,0.6-20.4c0-3-0.2-9.7-0.5-20.1
			c-7.7,0.8-13.8,1.2-18.4,1.2c-0.6,0-0.9-0.2-0.9-0.6c0-0.5,0.3-2,0.8-4.4c0.6-2.7,1-4.3,1-4.9c0.1-1.8,0.2-3.6,0.4-5.4
			c0.3-2.9,0.7-4.3,1.4-4.3c0.1,0,0.3,0,0.8,0.1c6.2,0.8,15.4,1.2,27.6,1.2c3.5,0,9.8-0.4,19.1-1.1c5-0.4,7.5-0.6,7.6-0.6
			c0.8,0,1.2,0,1.3,0.1c0.1,0.1,0.2,0.5,0.2,1.1c0,1,0,2.5-0.1,4.3c-0.1,2-0.1,3.5-0.1,4.3c0,1,0.1,2.4,0.4,4.2
			C245.3,59.3,245.4,60.7,245.4,61.6z"/>
		<path class="st1" d="M309.1,96c0,3,0.2,7.4,0.5,13.2c0.3,5.8,0.5,10.2,0.5,13.1c0,1.5-0.7,2.4-2,2.5c-4.8,0.3-10.2,0.5-16.4,0.5
			c-0.7,0-1.2-1.1-1.5-3.3c-0.3-2.2-0.5-3.3-0.9-3.4c-0.3,0.2-0.7,0.5-1.2,1c-4.3,4.3-8.9,6.5-13.8,6.5c-7.5,0-13.7-3-18.6-8.9
			c-4.7-5.5-7-12.1-7-19.8c0-8.9,2.4-16,7.2-21.4c5-5.6,11.8-8.4,20.5-8.4c6,0,10.8,2.1,14.3,6.3c0.2,0.2,0.3,0.3,0.4,0.3
			c0.3,0,0.7-0.9,1.2-2.8c0.4-1.9,1-2.8,1.6-2.8c1.4,0,4.1,0.4,8.1,1.2c3.8,0.8,6.5,1.4,8.2,2c0.6,0.2,0.9,0.5,0.9,0.9
			c0,0.2-0.1,0.6-0.2,1.2C309.8,80.9,309.1,88.2,309.1,96z M290.6,96.3c0-3.3-1-6-3.1-8.1c-2.1-2.1-4.7-3.2-8-3.2s-6,1.1-8,3.2
			c-2,2.1-3.1,4.8-3.1,8.1c0,3.1,1.1,5.8,3.2,8c2.2,2.2,4.8,3.3,7.8,3.3c3.3,0,5.9-1.1,8-3.2C289.5,102.4,290.6,99.6,290.6,96.3z"/>
		<path class="st1" d="M342,98.4c0,2.8,0.1,7,0.2,12.5c0.1,5.6,0.2,9.7,0.2,12.5c0,0.8-0.5,1.3-1.4,1.4c-1.3,0.2-4.2,0.3-8.8,0.3
			c-4.6,0-7.6-0.1-8.9-0.3c-0.8-0.2-1.4-0.4-1.6-0.7c-0.1-0.2-0.1-0.7-0.1-1.7c0-2.7,0.1-6.6,0.2-12c0.1-5.3,0.2-9.3,0.2-12
			c0-10.9-0.4-19.6-1.3-26.1c-0.1-0.6-0.1-1-0.1-1.2c0-0.8,0.5-1.2,1.6-1.2c1.1,0,2.7,0.1,4.9,0.3c2.2,0.2,3.9,0.3,5,0.3
			c1.1,0,2.8-0.1,5-0.3c2.2-0.2,3.9-0.3,5-0.3c0.9,0,1.4,0.4,1.4,1.2c0,0.2,0,0.5-0.1,1.1C342.4,79.8,342,88.5,342,98.4z
			 M343.5,55.5c0,6.7-3.8,10-11.3,10c-3.2,0-5.9-0.8-8-2.5c-2.3-1.8-3.5-4.3-3.5-7.5c0-3,1.2-5.5,3.6-7.4c2.2-1.8,4.8-2.7,7.9-2.7
			c3,0,5.6,0.9,7.8,2.7C342.3,50.1,343.5,52.6,343.5,55.5z"/>
		<path class="st1" d="M374.1,90.1c0,10.5,0,18.5,0.1,24.2c0,0.9,0.1,2.4,0.2,4.6c0.1,2,0.2,3.5,0.2,4.6c0,0.8-0.5,1.3-1.4,1.4
			c-1.7,0.3-4.8,0.5-9.3,0.5c-4.6,0-7.6-0.2-8.8-0.5c-0.8-0.2-1.3-0.7-1.4-1.6c0-0.1,0-0.9,0-2.5c0-3.4,0-8.5,0.1-15.4
			c0.1-6.8,0.1-11.9,0.1-15.3c0-16.1,0-23.5,0.1-22.1c-0.1-8.5-0.6-15.8-1.4-22c-0.1-0.4-0.1-0.7-0.1-1c0-0.8,0.5-1.3,1.5-1.3h20.6
			c1,0,1.4,0.4,1.3,1.2l-0.1,1C374.6,62.7,374.1,77.4,374.1,90.1z"/>
		<path class="st1" d="M440.1,96.5c0,8.8-2.7,15.9-8,21.3c-5.4,5.5-12.4,8.2-21.1,8.2c-8.5,0-15.4-2.7-20.9-8.1
			c-5.5-5.4-8.2-12.3-8.2-20.8c0-8.9,2.6-16.2,7.8-21.7c5.2-5.6,12.3-8.3,21.2-8.3c8.7,0,15.7,2.7,21.1,8.2
			C437.4,80.7,440.1,87.8,440.1,96.5z M421.2,96.5c0-3-0.9-5.7-2.8-8c-1.9-2.3-4.3-3.5-7.3-3.5c-3,0-5.5,1.2-7.5,3.6
			c-1.8,2.2-2.8,4.9-2.8,8c0,3.1,0.9,5.8,2.8,8c2,2.4,4.5,3.6,7.5,3.6c3,0,5.5-1.2,7.4-3.6C420.3,102.2,421.2,99.6,421.2,96.5z"/>
		<path class="st1" d="M485.3,88.9c0,1.5-0.8,2.2-2.5,2.2c-0.7,0-1.8,0-3.2-0.1c-1.4-0.1-2.5-0.1-3.1-0.1c-3.2,0-5.4,0.5-6.5,1.5
			c-1.2,1-1.7,3-1.7,6.1c0,1.7,0,4.2,0.1,7.5c0.1,3.4,0.1,5.9,0.1,7.5c0,1.1,0.1,2.8,0.2,5c0.2,2.2,0.2,3.9,0.2,4.9
			c0,0.9-0.6,1.4-1.9,1.6c-1.8,0.2-4.7,0.2-8.5,0.2c-3.7,0-6.6-0.1-8.8-0.3c-1.3-0.2-1.9-0.8-1.9-1.9c0-3.1,0-7.7,0.1-13.8
			c0-6.1,0.1-10.7,0.1-13.8c0-9-0.8-16.5-2.5-22.3c-0.1-0.3-0.1-0.6-0.1-0.9c0-0.6,0.3-1,0.9-1.2c2.1-0.2,5.2-0.7,9.3-1.3
			c6.1-1.2,9.2-1.8,9.4-1.8c0.7,0,1.1,1.2,1.3,3.6c0.2,2.4,0.5,3.6,1,3.6c-0.5,0,1-1,4.7-3c3.7-2,7.2-3,10.7-3
			c2.2,0,3.2,0.5,3.2,1.4c0,1.1-0.1,2.7-0.3,4.7c-0.2,2.2-0.4,3.8-0.4,4.7c0,1.1,0,2.6,0.1,4.4C485.3,86.7,485.3,88.2,485.3,88.9z"
			/>
		<path class="st1" d="M550,96c0,3,0.2,7.4,0.5,13.2c0.3,5.8,0.5,10.2,0.5,13.1c0,1.5-0.7,2.4-2,2.5c-4.8,0.3-10.2,0.5-16.4,0.5
			c-0.7,0-1.2-1.1-1.5-3.3c-0.3-2.2-0.5-3.3-0.9-3.4c-0.3,0.2-0.7,0.5-1.2,1c-4.3,4.3-8.9,6.5-13.8,6.5c-7.5,0-13.7-3-18.6-8.9
			c-4.7-5.5-7-12.1-7-19.8c0-8.9,2.4-16,7.2-21.4c5-5.6,11.8-8.4,20.5-8.4c6,0,10.8,2.1,14.3,6.3c0.2,0.2,0.3,0.3,0.4,0.3
			c0.3,0,0.7-0.9,1.2-2.8c0.4-1.9,1-2.8,1.6-2.8c1.4,0,4.1,0.4,8.1,1.2c3.8,0.8,6.5,1.4,8.2,2c0.6,0.2,0.9,0.5,0.9,0.9
			c0,0.2-0.1,0.6-0.2,1.2C550.6,80.9,550,88.2,550,96z M531.4,96.3c0-3.3-1-6-3.1-8.1c-2.1-2.1-4.7-3.2-8-3.2c-3.3,0-6,1.1-8,3.2
			c-2,2.1-3.1,4.8-3.1,8.1c0,3.1,1.1,5.8,3.2,8c2.2,2.2,4.8,3.3,7.8,3.3c3.3,0,5.9-1.1,8-3.2S531.4,99.6,531.4,96.3z"/>
	</g>
</g>
</svg>
